<?xml version="1.0" encoding="utf-8"?>
<!-- Generator: Adobe Illustrator 18.1.1, SVG Export Plug-In . SVG Version: 6.00 Build 0)  -->
<!DOCTYPE svg PUBLIC "-//W3C//DTD SVG 1.1//EN" "http://www.w3.org/Graphics/SVG/1.1/DTD/svg11.dtd">
<svg version="1.1" id="Layer_1" xmlns="http://www.w3.org/2000/svg" xmlns:xlink="http://www.w3.org/1999/xlink" x="0px" y="0px"
	 viewBox="0 0 144 144" enable-background="new 0 0 144 144" xml:space="preserve">
<g>
	<path fill="#F2ECE5" d="M24,107.7c0-20.9,0-41.8,0-63c11.6,0,23.2-0.3,34.7,0.3c6.8,0.3,12.4,3.7,14.4,11c2,7.1,0.8,13.3-4.8,17.2
		c2.5,3.7,5.6,6.5,6.8,10.4c1.1,3.7,0.8,8.2-0.3,11.9c-2,7.9-8.8,12.1-18.4,12.1C45.7,107.7,35,107.7,24,107.7z M39,80.3
		c0,5.9,0,11,0,16.7c5.6-0.3,11-0.3,16.1-0.8c4.8-0.6,7.1-4,7.1-8.5c-0.3-4.2-2.8-7.1-7.6-7.3C49.7,80,44.6,80.3,39,80.3z M39,69.6
		c5.9-0.3,11-0.3,16.1-0.8c3.7-0.3,5.9-2.8,5.9-6.5c0-4.2-2.8-6.2-6.5-6.5c-5.1-0.3-10.2,0-15.5,0C39,60.6,39,64.5,39,69.6z"/>
	<path fill="#F2ECE5" d="M125.4,86.5c-11,0-21.5,0-32.5,0c-0.3,4.2,1.4,7.3,4.8,9.3c3.7,2.3,8.2,3.4,11.6,0.3
		c4.5-4.8,9.9-3.4,16.7-3.7c-2,3.4-3.1,6.2-4.8,8.2c-5.9,6.8-17.8,8.8-26.8,5.1c-9.3-4-13.8-11-13.6-22.3
		c0.3-18.1,13.8-27.7,30.8-22.6c8.2,2.5,13.8,9.9,14.1,18.9C125.4,81.5,125.4,83.7,125.4,86.5z M112.7,78.1
		c-1.4-6.2-5.4-9.3-10.4-9.3c-4.8,0.3-8.2,3.7-8.8,9.3C100,78.1,106.2,78.1,112.7,78.1z"/>
	<path fill="#F2ECE5" d="M90.4,47.3c8.5,0,16.7,0,25.1,0c0,2,0,3.7,0,5.9c-8.5,0-16.7,0-25.1,0C90.4,51.5,90.4,49.8,90.4,47.3z"/>
</g>
</svg>
