<?xml version="1.0" encoding="utf-8"?>
<!-- Generator: Adobe Illustrator 18.1.1, SVG Export Plug-In . SVG Version: 6.00 Build 0)  -->
<!DOCTYPE svg PUBLIC "-//W3C//DTD SVG 1.1//EN" "http://www.w3.org/Graphics/SVG/1.1/DTD/svg11.dtd">
<svg version="1.1" xmlns="http://www.w3.org/2000/svg" xmlns:xlink="http://www.w3.org/1999/xlink" x="0px" y="0px"
	 viewBox="0 0 217.2 217.2" enable-background="new 0 0 217.2 217.2" xml:space="preserve">
<pattern  x="-70.8" y="-70.8" width="32.1" height="32.1" patternUnits="userSpaceOnUse" id="purple_dots" viewBox="0 -32.1 32.1 32.1" overflow="visible">
	<g>
		<polygon fill="none" points="0,-32.1 32.1,-32.1 32.1,0 0,0 		"/>
		<path fill="#C8ABCE" d="M28.5-16c0,6.9-5.6,12.4-12.4,12.4S3.6-9.2,3.6-16S9.2-28.5,16-28.5S28.5-22.9,28.5-16z"/>
	</g>
</pattern>
<g id="Layer_1">
</g>
<g id="Isolation_Mode">
	<circle fill="#C89FCE" cx="107.5" cy="110.1" r="95.5"/>
	<circle fill="url(#purple_dots)" cx="107.5" cy="110.1" r="95.5"/>
	<g>
		<path fill="#FAD3D4" d="M105,95c-0.2,0-0.3,0-0.5,0c-3.6-0.3-7.2-1.6-10.8-2c-5.9-0.7-12.1,1-16.5,4.9c-4,3.5-6.4,8.6-7.9,13.7
			c-2.8,9.9-2.7,20.3-2.5,30.6c0.1,7.8,0.4,15.9,4.2,22.7c3.1,5.5,8.2,9.5,12.6,14.2c3.8,4.1,7.3,8.8,12.2,11.3
			c5.5,2.8,12.5,2.4,17.7-1c4.3-2.8,7-7.3,10.3-11.2c4.5-5.3,10.2-9.8,13.5-16c3.6-6.7,4-14.6,4-22.2c0-9.7-0.4-19.6-3.1-28.9
			c-1.3-4.7-3.2-9.3-6.5-12.8C123.5,89.6,114.7,95.6,105,95z"/>
		<g>
			<path fill="#941A1D" d="M119,166c-1.8,4.8-5.5,8.9-10.1,11.2c-2.6,1.3-5.6,2-8.5,1.7c-4.5-0.5-8.5-3.4-11.1-7
				c-0.9-1.3-1.7-2.7-3-3.6c-0.6-0.4-1.3-1-1-1.7c0.3-0.6,1.1-0.5,1.7-0.2c1.5,0.5,2.1,0.8,3.6,0.6c0.7-0.1,1.6-0.7,2.2-1.1
				c1.7-0.9,4.2-1.2,6.1-1.1c1.3,0,2.5,0.5,3.8,0.5c2.5,0,4.6-0.9,7.1-0.4c2.8,0.5,5.6,1,8.4,0.4c0.3-0.1,0.8,0,0.8,0.3
				c0,0.1,0,0.1,0,0.2C119.1,165.8,119.1,165.9,119,166z"/>
			<path fill="#F6FBFD" d="M88.1,167.7c0,0,15.7,11.3,28.4-0.6C116.5,167.2,100.1,173.4,88.1,167.7z"/>
		</g>
		<path fill="#6F493B" d="M71,124.9c0,0,4.3-5.9,10.1-5.9c5.8,0,12.2,3.3,16.1,4.2c3.9,0.9,2.2,4.4-2.3,3.1c-4.5-1.3-9.1-4.6-14-4
			S70.5,128,71,124.9z"/>
		<path fill="#6F493B" d="M114.7,123.5c0.4-0.1,0.8-0.2,1.2-0.3c4-0.7,8.2-0.8,12.3-0.2c1.9,0.3,3.8,0.8,5.6,1.5
			c1.5,0.6,3.6,1.6,4.8,2.7c0.3,0.3-2.4,0.3-2.5,0.3c-0.9-0.3-1.6-0.7-2.4-1.1c-2.3-1.1-5-1.4-7.5-1.2s-5,0.5-7.4,1.3
			c-1.2,0.4-2.4,0.8-3.7,0.6c-1.2-0.2-2.5-0.8-2.2-1.9C113,124.3,113.8,123.8,114.7,123.5z"/>
		<path fill="#941A1D" d="M67.6,179.5c0,0-33.1-15.3-1.2-52.6c0,0-19.1-45.3,20.8-64.4c0,0-9.4-32.7,21.6-34.5s13.1,32,13.1,32
			s45.8,4.4,21,69.7c0,0,18,6,3.9,23.9c0,0-5.1,3.3,5.7,14.1c0,0-11.7-7.7-7.1-15.8c0,0,10.1-11.4-5-19.9c0,0,1.8-45.9-32.5-33.7
			c0,0-1.1,1-6.7-1.7c0,0-34.2-14.4-32.1,31C69.2,127.8,39.3,160.6,67.6,179.5z"/>
		<path fill="#B32024" d="M124.3,97.3c0,0,21-12.8,14.6-29.6c0,0,18.6,13.5-4.7,37.5C134.2,105.1,131.4,99.4,124.3,97.3z"/>
		<path fill="#B32024" d="M74.8,101.5c0,0-10.9-11.4-7.4-21.3c0,0,3.2-7.3,14.1-14.5C81.5,65.7,68.4,80.9,74.8,101.5z"/>
		<path fill="#B32024" d="M103.9,97.9c0,0-14-7.1-6.9-17.3c7.1-10.2,12.1-14.9,3.3-20.3c0,0,10.6,5.3,14.2-3c0,0,1.2,18.8-11.5,23
			S103.9,97.9,103.9,97.9z"/>
		<g>
			<path fill="#231F20" d="M142.4,127.5c-10.2-0.6-19.9-2.4-29.8,1.3c-1.7,0.6-3.4,1.4-5.2,1.7c-3.3,0.5-6.6-0.8-9.8-1.8
				c-10.1-3.2-20.9-4.2-31.4-2.9c-0.6,1.2-1.2,2.6-0.7,3.8c0.3,0.7,0.9,1.3,1.4,1.9c1.6,2.2,1.3,5.3,2.5,7.7c1.6,3,5.2,4.3,8.5,4.9
				c5.3,1.1,10.8,1.3,16.2,0.7c1.1-0.1,2.2-0.3,3.1-0.8c0.9-0.6,1.6-1.5,2.2-2.4c0.9-1.5,1.7-3,2.3-4.7c0.4-1.1,0.8-2.2,1.7-2.9
				c1.7-1.1,4,0.3,4.9,2c1,1.7,1.3,3.8,2.4,5.5c1.8,2.7,5.5,3.6,8.7,4c5.6,0.6,11.3,0.1,16.7-1.2c0.7-0.2,1.4-0.4,2-0.8
				c0.6-0.4,0.9-1.1,1.2-1.7c1.1-2.1,1.8-4.4,2.2-6.8c0.1-0.6,0.2-1.2,0.5-1.6c0.2-0.3,0.6-0.5,0.8-0.8c0.4-0.5,0.6-1.2,0.7-1.8
				C143.8,129.7,143.3,128.4,142.4,127.5C142.5,127.5,142.4,127.5,142.4,127.5z M99.5,134.7c0,0-1.8,8.2-4.6,8.6
				c-2.8,0.4-22.5,1.6-23.6-4.4c0,0-4.6-10,1.8-11.7c6.4-1.7,21.9,1.9,21.9,1.9S100.8,130.5,99.5,134.7z M133.4,143.7
				c-7,1.4-17.5,2.7-20.9-2.4c0,0-5.6-9.7,3.4-12.3c9-2.6,21.6-0.3,21.6-0.3s2.7,1.1,2.4,4.5C139.9,133.2,140.4,142.3,133.4,143.7z"
				/>
			
				<ellipse transform="matrix(0.9981 6.102038e-02 -6.102038e-02 0.9981 7.9403 -3.9034)" fill="#ED3024" cx="67.9" cy="128.1" rx="1.6" ry="0.6"/>
		</g>
		
			<ellipse transform="matrix(0.9981 6.102038e-02 -6.102038e-02 0.9981 8.2143 -8.3951)" fill="#ED3024" cx="141.6" cy="130.3" rx="1.6" ry="0.6"/>
		<path fill="#B32024" d="M87.2,62.5c0,0,38.2-7,21.6-34.5c0,0-10.9-0.1-15.4,5.1C93.4,33.2,122.1,42.7,87.2,62.5z"/>
		<g>
			<g>
				<path fill="#FFFFFF" d="M116.2,137.3c-0.1-0.2-0.1-0.5,0-0.8c0.4-1.9,5.8-3.7,7.8-3.8c3.1-0.2,11.3,2.3,7.8,5.9
					C128.9,141.7,117.4,142.3,116.2,137.3z"/>
				<circle fill="#006073" cx="124.3" cy="136.9" r="3.5"/>
				<circle fill="#231F20" cx="124.3" cy="137" r="1.6"/>
			</g>
			<path fill="#231F20" d="M116.2,137.3c0,0-0.4-1.4,1.3-2.3c0,0,0.4-1.1-0.1-1.1c0,0,0.5,0.1,0.5,0.9c0,0,0.8-0.2,0.3-1.6
				c0,0,0.7,0.5,0.6,1.2c0,0,0.6-1.4,0.2-1.8c0,0,0.5,0.3,0.4,1.4c0,0,1-0.9,0.4-2.1c0,0,0.5,1,0.4,1.6c0,0,1-0.8,0.3-2.1
				c0,0,0.5,0.5,0.5,1.9c0,0,1.4-1.1,0.8-2.7c0,0,1.1,0.9,0.3,2.3c0,0,1.1-1.2,1-2.2c0,0,0.1,1.6-0.4,2.1c0,0,1.9-0.7,1.3-3.7
				c0,0,1.7,1.9,0.5,3.1c0,0,1.7-1.6,0.9-3.8c0,0,1,1,0.7,3.2c0,0,2-2.1,1-3.7c0,0,1.5,2.5-0.2,4.3c0,0,2.5-1.1,2.2-3.5
				c0,0,1.1,1.9-0.2,3.7c0,0,1.4-1.3,1.5-2.8c0,0,0.2,2.3-0.6,3.5c0,0,2.2-2.3,1.9-3.6c0,0,0.7,1.5-0.6,3.7c0,0,2.2-1.4,2.5-3
				c0,0,0.1,2.4-1.7,4c0,0,1.7-0.1,2.5-1.8c0,0-0.1,1.6-1.5,2.7c0,0,3.2-1.3,3.3-3.6c0,0,0.6,1.9-2.1,3.9c0,0,4.6-1.6,4.7-4.6
				c0,0-0.1,4.2-3.6,6.2c0,0,1.4,0.6,1.4,1.5c0,0-1.2-1.6-2.7-1c0,0,1.4,0.4,1.4,0.9c0,0-1.5-1-2.4-0.5c0,0,1.5,0.2,1.4,1.2
				c0,0-0.5-1.6-2.7-0.5c0,0,2.6-6.6-8.8-5C121,133.9,116.6,135,116.2,137.3z"/>
		</g>
		<g>
			<g>
				<path fill="#FFFFFF" d="M93.5,137.8c0.1-0.2,0.1-0.5,0.1-0.8c-0.2-2-5.4-4.4-7.3-4.7c-3.1-0.6-11.5,0.9-8.4,4.9
					C80.4,140.5,91.7,142.6,93.5,137.8z"/>
				<circle fill="#006073" cx="85.5" cy="136.4" r="3.5"/>
				<circle fill="#231F20" cx="85.5" cy="136.5" r="1.6"/>
			</g>
			<path fill="#231F20" d="M93.5,137.8c0,0,0.5-1.3-1-2.4c0,0-0.3-1.1,0.3-1.1c0,0-0.5,0-0.6,0.9c0,0-0.7-0.3-0.1-1.6
				c0,0-0.8,0.4-0.7,1.2c0,0-0.4-1.4,0-1.8c0,0-0.5,0.2-0.6,1.4c0,0-0.8-1-0.1-2.1c0,0-0.7,0.9-0.6,1.6c0,0-0.9-0.9-0.1-2.1
				c0,0-0.5,0.4-0.7,1.8c0,0-1.3-1.3-0.5-2.7c0,0-1.2,0.8-0.6,2.3c0,0-0.9-1.3-0.7-2.3c0,0-0.3,1.6,0.1,2.1c0,0-1.8-0.9-0.8-3.9
				c0,0-1.9,1.7-0.9,3c0,0-1.5-1.8-0.4-3.9c0,0-1.1,0.9-1.1,3.1c0,0-1.7-2.3-0.6-3.8c0,0-1.8,2.3-0.3,4.3c0,0-2.4-1.4-1.7-3.7
				c0,0-1.3,1.8-0.3,3.7c0,0-1.2-1.5-1.2-3c0,0-0.5,2.2,0.2,3.5c0,0-1.9-2.5-1.5-3.8c0,0-0.8,1.4,0.2,3.7c0,0-2-1.6-2.1-3.3
				c0,0-0.4,2.4,1.2,4.2c0,0-1.7-0.3-2.3-2.1c0,0-0.1,1.6,1.1,2.9c0,0-3-1.7-2.8-3.9c0,0-0.8,1.8,1.6,4.1c0,0-4.3-2.2-4.1-5.2
				c0,0-0.4,4.2,2.8,6.6c0,0-1.5,0.5-1.6,1.3c0,0,1.4-1.4,2.8-0.6c0,0-1.4,0.2-1.5,0.7c0,0,1.6-0.8,2.4-0.2c0,0-1.5,0-1.6,1
				c0,0,0.6-1.5,2.7-0.2c0,0-1.7-6.9,9.4-3.9C89.1,133.8,93.4,135.4,93.5,137.8z"/>
		</g>
	</g>
</g>
</svg>
