<?xml version="1.0" encoding="utf-8"?>
<!-- Generator: Adobe Illustrator 18.1.1, SVG Export Plug-In . SVG Version: 6.00 Build 0)  -->
<!DOCTYPE svg PUBLIC "-//W3C//DTD SVG 1.1//EN" "http://www.w3.org/Graphics/SVG/1.1/DTD/svg11.dtd">
<svg version="1.1" id="Layer_1" xmlns="http://www.w3.org/2000/svg" xmlns:xlink="http://www.w3.org/1999/xlink" x="0px" y="0px"
	 viewBox="0 0 144 144" enable-background="new 0 0 144 144" xml:space="preserve">
<g>
	<path fill="#F2ECE5" d="M118.7,69.3c-1.3,4-4.8,4.5-8,6.1c2.7,1.9,5.3,0.8,8.3,1.3c-1.9,2.9-5.1,3.5-7.7,4c-2.1,0.3-3.2,1.1-4,3.2
		c-7.5,18.7-22.4,26.4-41.3,28.3c-14.4,1.3-26.7-3.5-36.8-13.6c-0.8-0.8-1.9-1.1-1.3-2.9c10.9,5.9,21.1,5.1,30.9-3.2
		c-2.1-0.8-4.5-0.8-5.6-2.9c-1.3-2.4,0.8-3.7,1.9-5.6c-1.9-0.3-4-0.3-5.6-1.3c-1.9-1.1-3.7-2.4-4-4.3c-0.3-2.1,2.4-1.9,3.5-3.2
		c-2.1-1.3-4.5-2.1-6.1-4.3c-2.9-3.7-2.4-4.8,2.1-6.1c-4-2.9-6.7-6.1-6.7-11.7c11.2,4.5,22.4,8,31.7,16.3c2.7-5.6,4.5-10.9,8.3-15.7
		c2.7-3.5,5.6-6.7,10.4-6.9c2.4-0.3,4,1.3,6.4,1.3c1.3,0,0.5,1.9-0.3,2.4c-1.3,0.8-2.7,1.1-4.8,1.9c4,1.1,7.2,1.9,9.9,4
		c3.5,2.9,6.4,6.1,7.5,10.4c1.1,4.5,3.7,5.3,7.7,4.5C115.7,70.1,117.1,69.6,118.7,69.3z"/>
</g>
</svg>
